<?xml version="1.0" encoding="utf-8"?>
<!-- Generator: Adobe Illustrator 23.0.2, SVG Export Plug-In . SVG Version: 6.00 Build 0)  -->
<svg version="1.1" id="Capa_1" xmlns="http://www.w3.org/2000/svg" xmlns:xlink="http://www.w3.org/1999/xlink" x="0px" y="0px"
	 viewBox="0 0 188.95 188.95" style="enable-background:new 0 0 188.95 188.95;" xml:space="preserve">
<style type="text/css">
	.st0{fill-rule:evenodd;clip-rule:evenodd;fill:#010202;stroke:#000000;stroke-width:0.5669;stroke-miterlimit:22.9256;}
	.st1{fill-rule:evenodd;clip-rule:evenodd;fill:#FFFFFF;}
	.st2{fill-rule:evenodd;clip-rule:evenodd;}
</style>
<rect class="st0" width="188.95" height="188.95"/>
<path class="st1" d="M46.97,91.5l-0.09-10.86c0.8-0.28,1.98-0.62,3.35-0.42c1.09,0.16,1.6,1,1.63,2.09l0.13,5.81
	C52.01,90.95,50,91.73,46.97,91.5L46.97,91.5z M47.01,108.91l-0.07-12.77l3.11-0.03l2.26,12.74l4.15,0.03L53.5,93.94
	c0.87-0.87,2.3-2.2,2.32-6.23c0.01-1.95,0.11-6.21-0.19-7.7c-0.44-2.16-1.24-4.27-3.57-4.88c-2.13-0.55-6.61,0.63-8.77,1.09
	l0.02,32.62L47.01,108.91z"/>
<path class="st1" d="M27.12,85.28L27.18,104c1.18,8.18,11.65,5.76,12.14-0.74l0.06-12.7l-6.15,0.75l0.06,4.54l2.3,0.05l-0.02,5.88
	c-0.51,4.4-4.11,3.09-4.7,1.6c-0.43-4.98-0.13-10.71-0.13-15.81c0-1.45-0.16-3.44,0.86-4.56c1.13-1.25,2.64-1.01,3.68,0.2
	c0.74,0.86,0.43,3.82,0.44,5.02l3.68-0.64l-0.04-4.86c-0.09-0.86-0.39-1.64-0.75-2.32C35.58,74.67,27.48,79.02,27.12,85.28z"/>
<polygon class="st1" points="60.4,73.79 63.78,73.26 63.78,108.92 60.4,108.92 "/>
<polygon class="st1" points="67.89,72.88 71.55,72.52 71.55,103.63 78.42,103.63 78.42,108.96 71.55,108.96 68.62,108.96 
	67.89,108.96 "/>
<polygon class="st1" points="81.68,71.8 85.34,71.8 85.34,103.63 92.21,103.63 92.21,108.96 85.34,108.96 82.42,108.96 
	81.68,108.96 "/>
<path class="st1" d="M99.21,89.36l-0.09-12.23c1.25-0.05,3.66-0.16,4.41,1.01c0.37,0.58,0.56,1.39,0.57,2.03l0.13,5.81
	C104.24,88.81,102.24,89.59,99.21,89.36L99.21,89.36z M99.25,108.91l-0.07-14.02l3.11-0.03l2.26,13.99l4.15,0.03l-2.97-16.54
	c0.87-0.87,2.3-2.2,2.32-6.23c0.01-1.95,0.11-6.75-0.19-8.23c-0.44-2.16-2.2-5.19-4.54-5.79c-2.13-0.55-5.21-0.51-7.8-0.32
	l0.02,37.08L99.25,108.91z"/>
<path class="st1" d="M117.94,72.03c3.43,0.08,6.24,4.71,6.24,7.89v21.48c0,3.31-2.49,8.31-6.24,8.31c-3.04,0-5.49-3.59-6.21-6.69
	c-0.3-1.3-0.22-2.6-0.22-3.93V79.58c0-1.01,0.02-2.03,0.39-3.02C112.67,74.54,114.59,71.95,117.94,72.03L117.94,72.03z
	 M117.69,77.28c-1.35,0-2.46,1.46-2.46,2.82v21c0,1.3,1.06,2.82,2.46,2.82c1.35,0,2.46-1.28,2.46-2.64V79.92
	C120.15,78.59,119.07,77.28,117.69,77.28z"/>
<path class="st1" d="M134.23,73.82c3.4,0.06,6.25,5.01,6.25,8.16v19.33c0,1-0.01,1.55-0.26,2.55c-0.58,2.35-2.92,5.79-5.99,5.85
	c-1.91,0.04-3.67-1.31-4.79-2.89c-1.15-1.61-1.67-3.08-1.67-5.02V83.09c0-1.43-0.18-3.18,0.29-4.52
	C128.75,76.57,130.74,73.75,134.23,73.82L134.23,73.82z M133.98,78.89c-1.35,0-2.46,1.46-2.46,2.82v19.57c0,1.3,1.06,2.82,2.46,2.82
	c1.35,0,2.46-1.29,2.46-2.64V82.06C136.44,80.74,135.36,78.89,133.98,78.89z"/>
<polygon class="st1" points="144.19,109.06 144.19,76 149.62,76.94 153.4,99.55 157.12,78.54 162.49,79.72 162.49,109 158.71,109 
	158.71,90.82 155.35,108.88 152.1,108.88 148.26,89.52 148.26,109.12 "/>
<path class="st2" d="M46.65,91.16L46.56,80.3c0.8-0.28,1.98-0.62,3.35-0.42c1.09,0.16,1.6,1,1.63,2.09l0.13,5.81
	C51.69,90.61,49.68,91.39,46.65,91.16L46.65,91.16z M46.7,108.56L46.63,95.8l3.11-0.03L52,108.5l4.15,0.03L53.18,93.6
	c0.87-0.87,2.3-2.2,2.32-6.23c0.01-1.95,0.11-6.21-0.19-7.7c-0.44-2.16-1.24-4.28-3.57-4.88c-2.13-0.55-6.61,0.63-8.77,1.09
	l0.02,32.62L46.7,108.56z"/>
<path class="st2" d="M26.8,84.94l0.06,18.72c1.18,8.18,11.65,5.76,12.14-0.74l0.06-12.7l-6.15,0.75l0.06,4.54l2.3,0.05l-0.02,5.88
	c-0.51,4.4-4.11,3.09-4.7,1.6c-0.43-4.98-0.13-10.71-0.13-15.81c0-1.45-0.16-3.44,0.86-4.56c1.13-1.25,2.64-1.01,3.68,0.2
	c0.74,0.86,0.43,3.82,0.44,5.02l3.68-0.64l-0.04-4.86c-0.09-0.86-0.39-1.64-0.75-2.32C35.26,74.33,27.16,78.68,26.8,84.94z"/>
<polygon class="st2" points="60.09,73.45 63.46,72.92 63.46,108.58 60.09,108.58 "/>
<polygon class="st2" points="67.57,72.53 71.23,72.18 71.23,103.28 78.1,103.28 78.1,108.62 71.23,108.62 68.3,108.62 67.57,108.62 
	"/>
<polygon class="st2" points="81.37,71.46 85.02,71.46 85.02,103.28 91.89,103.28 91.89,108.62 85.02,108.62 82.1,108.62 
	81.37,108.62 "/>
<path class="st2" d="M98.89,89.02L98.8,76.79c1.25-0.05,3.66-0.16,4.41,1.01c0.37,0.58,0.56,1.39,0.57,2.03l0.13,5.81
	C103.92,88.47,101.92,89.25,98.89,89.02L98.89,89.02z M98.93,108.56l-0.07-14.02l3.11-0.03l2.26,13.99l4.15,0.03l-2.97-16.54
	c0.87-0.87,2.3-2.2,2.32-6.23c0.01-1.95,0.11-6.75-0.19-8.23c-0.44-2.16-2.2-5.19-4.54-5.79c-2.13-0.55-5.21-0.51-7.81-0.32
	l0.02,37.08L98.93,108.56z"/>
<path class="st2" d="M117.62,71.69c3.43,0.08,6.24,4.71,6.24,7.89v21.48c0,3.31-2.49,8.31-6.24,8.31c-3.04,0-5.49-3.59-6.21-6.69
	c-0.3-1.3-0.22-2.6-0.22-3.93V79.24c0-1.01,0.02-2.02,0.39-3.02C112.35,74.19,114.27,71.61,117.62,71.69L117.62,71.69z
	 M117.37,76.94c-1.35,0-2.46,1.46-2.46,2.82v21c0,1.3,1.06,2.82,2.46,2.82c1.35,0,2.46-1.29,2.46-2.64V79.58
	C119.83,78.25,118.75,76.94,117.37,76.94z"/>
<path class="st2" d="M133.91,73.47c3.4,0.06,6.25,5.01,6.25,8.16v19.33c0,1-0.01,1.55-0.26,2.55c-0.58,2.35-2.92,5.79-5.99,5.85
	c-1.91,0.04-3.67-1.31-4.8-2.89c-1.15-1.61-1.67-3.08-1.67-5.02V82.75c0-1.43-0.18-3.18,0.29-4.52
	C128.43,76.23,130.42,73.41,133.91,73.47L133.91,73.47z M133.66,78.54c-1.35,0-2.46,1.46-2.46,2.82v19.57c0,1.3,1.06,2.82,2.46,2.82
	c1.35,0,2.46-1.29,2.46-2.64V81.72C136.12,80.39,135.04,78.54,133.66,78.54z"/>
<polygon class="st2" points="143.87,108.72 143.87,75.65 149.3,76.6 153.08,99.21 156.8,78.2 162.17,79.38 162.17,108.66 
	158.39,108.66 158.39,90.47 155.03,108.54 151.78,108.54 147.94,89.18 147.94,108.78 "/>
<path class="st1" d="M46.3,90.84l-0.09-10.86c0.8-0.28,1.98-0.62,3.35-0.42c1.09,0.16,1.6,1,1.63,2.09l0.13,5.81
	C51.34,90.29,49.34,91.07,46.3,90.84L46.3,90.84z M46.35,108.25l-0.07-12.77l3.11-0.03l2.26,12.74l4.15,0.03l-2.97-14.93
	c0.87-0.87,2.3-2.2,2.32-6.23c0.01-1.95,0.11-6.21-0.19-7.7c-0.44-2.16-1.24-4.28-3.57-4.88c-2.13-0.55-6.61,0.63-8.77,1.09
	l0.02,32.62L46.35,108.25z"/>
<path class="st1" d="M26.46,84.62l0.06,18.72c1.18,8.18,11.65,5.76,12.14-0.74l0.06-12.7l-6.15,0.75l0.06,4.54l2.3,0.05l-0.02,5.88
	c-0.51,4.4-4.11,3.09-4.7,1.6c-0.43-4.98-0.13-10.72-0.13-15.81c0-1.45-0.17-3.44,0.86-4.56c1.13-1.25,2.64-1.01,3.68,0.2
	c0.74,0.86,0.43,3.82,0.44,5.02l3.68-0.64l-0.04-4.86c-0.09-0.86-0.39-1.64-0.75-2.32C34.91,74.01,26.82,78.36,26.46,84.62z"/>
<polygon class="st1" points="59.74,73.13 63.11,72.6 63.11,108.26 59.74,108.26 "/>
<polygon class="st1" points="67.22,72.21 70.88,71.86 70.88,102.97 77.75,102.97 77.75,108.3 70.88,108.3 67.96,108.3 67.22,108.3 
	"/>
<polygon class="st1" points="81.02,71.14 84.68,71.14 84.68,102.97 91.55,102.97 91.55,108.3 84.68,108.3 81.75,108.3 81.02,108.3 
	"/>
<path class="st1" d="M98.54,88.7l-0.09-12.23c1.25-0.05,3.66-0.16,4.41,1.01c0.37,0.58,0.56,1.39,0.57,2.03l0.13,5.81
	C103.58,88.15,101.57,88.93,98.54,88.7L98.54,88.7z M98.59,108.25l-0.07-14.02l3.11-0.03l2.26,13.99l4.15,0.03l-2.97-16.54
	c0.87-0.87,2.3-2.2,2.32-6.23c0.01-1.95,0.11-6.75-0.19-8.23c-0.44-2.16-2.2-5.19-4.54-5.79c-2.13-0.55-5.21-0.51-7.8-0.32
	l0.02,37.08L98.59,108.25z"/>
<path class="st1" d="M117.27,71.37c3.43,0.08,6.24,4.71,6.24,7.89v21.48c0,3.31-2.49,8.31-6.24,8.31c-3.04,0-5.49-3.59-6.21-6.69
	c-0.3-1.3-0.22-2.6-0.22-3.93V78.92c0-1.01,0.02-2.02,0.39-3.02C112,73.87,113.92,71.29,117.27,71.37L117.27,71.37z M117.02,76.62
	c-1.35,0-2.46,1.46-2.46,2.82v21c0,1.3,1.06,2.82,2.46,2.82c1.35,0,2.46-1.29,2.46-2.64V79.26
	C119.48,77.93,118.4,76.62,117.02,76.62z"/>
<path class="st1" d="M133.57,73.16c3.4,0.06,6.25,5.01,6.25,8.16v19.33c0,1-0.01,1.55-0.26,2.55c-0.58,2.35-2.92,5.79-5.99,5.85
	c-1.91,0.04-3.67-1.31-4.79-2.89c-1.15-1.61-1.67-3.08-1.67-5.02V82.43c0-1.43-0.18-3.18,0.29-4.52
	C128.09,75.91,130.07,73.09,133.57,73.16L133.57,73.16z M133.32,78.23c-1.35,0-2.46,1.46-2.46,2.82v19.57c0,1.3,1.06,2.82,2.46,2.82
	c1.35,0,2.46-1.29,2.46-2.64V81.4C135.78,80.07,134.69,78.23,133.32,78.23z"/>
<polygon class="st1" points="143.52,108.4 143.52,75.34 148.96,76.28 152.73,98.89 156.45,77.88 161.83,79.06 161.83,108.34 
	158.04,108.34 158.04,90.16 154.68,108.22 151.43,108.22 147.6,88.86 147.6,108.46 "/>
<polygon class="st1" points="91.27,45.9 93.45,45.9 93.45,51.97 96.18,51.97 96.18,45.9 98.35,45.9 98.35,60.21 96.18,60.21 
	96.18,54.14 93.45,54.14 93.45,60.21 91.27,60.21 "/>
<polygon class="st1" points="83.97,46.22 86.08,46.05 88.34,45.88 88.5,47.99 86.25,48.17 87.21,60.37 85.1,60.54 84.13,48.34 
	81.88,48.52 81.71,46.4 "/>
<polygon class="st1" points="101.5,48.19 101.66,46.07 103.78,46.23 107.71,46.52 107.55,48.64 103.62,48.35 103.29,52.36 
	105.38,52.52 105.22,54.63 103.13,54.48 102.86,58.44 106.79,58.73 106.63,60.85 102.7,60.55 100.58,60.39 100.74,58.28 "/>
<polygon class="st2" points="91.04,45.67 93.22,45.67 93.22,51.74 95.95,51.74 95.95,45.67 98.13,45.67 98.13,59.98 95.95,59.98 
	95.95,53.92 93.22,53.92 93.22,59.98 91.04,59.98 "/>
<polygon class="st2" points="83.74,46 85.86,45.83 88.11,45.65 88.28,47.77 86.02,47.94 86.99,60.15 84.87,60.32 83.91,48.11 
	81.65,48.29 81.49,46.17 "/>
<polygon class="st2" points="101.28,47.96 101.44,45.84 103.55,46 107.48,46.3 107.32,48.42 103.39,48.12 103.06,52.13 
	105.15,52.29 104.99,54.41 102.9,54.25 102.63,58.21 106.57,58.51 106.41,60.62 102.47,60.33 100.36,60.17 100.52,58.05 "/>
<polygon class="st1" points="90.8,45.43 92.97,45.43 92.97,51.49 95.7,51.49 95.7,45.43 97.88,45.43 97.88,59.74 95.7,59.74 
	95.7,53.67 92.97,53.67 92.97,59.74 90.8,59.74 "/>
<polygon class="st1" points="83.49,45.75 85.61,45.58 87.86,45.4 88.03,47.52 85.78,47.7 86.74,59.9 84.62,60.07 83.66,47.86 
	81.41,48.04 81.24,45.93 "/>
<polygon class="st1" points="101.03,47.71 101.19,45.6 103.3,45.76 107.24,46.05 107.08,48.17 103.15,47.87 102.82,51.89 
	104.91,52.04 104.75,54.16 102.66,54 102.39,57.96 106.32,58.26 106.16,60.37 102.23,60.08 100.11,59.92 100.27,57.8 "/>
<path class="st1" d="M81.85,133.52c0.35,0,0.63,0.29,0.63,0.63v0c0,0.35-0.29,0.63-0.63,0.63c-4.47,0.27-45.1,0.22-48.56-0.64
	C36.83,133.22,77.28,133.38,81.85,133.52z"/>
<path class="st1" d="M106.31,133.52c-0.35,0-0.64,0.29-0.64,0.63v0c0,0.35,0.29,0.63,0.64,0.63c4.47,0.27,45.1,0.22,48.56-0.64
	C151.33,133.22,110.88,133.38,106.31,133.52z"/>
<path class="st1" d="M85.45,132.31l-0.04-0.03v-0.15l1.1-1.17c0.45-0.48,0.75-0.85,0.88-1.12c0.13-0.26,0.2-0.51,0.2-0.74
	c0-0.27-0.08-0.49-0.24-0.67c-0.16-0.18-0.38-0.27-0.66-0.27c-0.18,0-0.33,0.03-0.46,0.08c-0.13,0.05-0.22,0.12-0.27,0.18
	c-0.05,0.07-0.11,0.26-0.2,0.57l-0.03,0.03H85.6L85.57,129c0.05-0.3,0.09-0.59,0.11-0.88c0.21-0.2,0.4-0.33,0.58-0.39
	c0.18-0.06,0.37-0.08,0.56-0.08c0.23,0,0.46,0.04,0.67,0.13c0.21,0.09,0.38,0.23,0.51,0.43c0.13,0.2,0.19,0.43,0.19,0.68
	c0,0.19-0.04,0.39-0.11,0.58c-0.08,0.19-0.19,0.38-0.33,0.56c-0.15,0.18-0.35,0.4-0.6,0.65l-1.03,1.05h1.3c0.4,0,0.73-0.01,1-0.04
	l0.02,0.03c-0.01,0.07-0.02,0.17-0.02,0.29c0,0.11,0.01,0.2,0.02,0.26l-0.02,0.04c-0.16-0.01-0.4-0.02-0.73-0.02
	c-0.33-0.01-0.54-0.01-0.65-0.01c-0.21,0-0.5,0-0.86,0.01C85.82,132.29,85.58,132.3,85.45,132.31L85.45,132.31z M88.88,130.26
	c0-0.39,0.02-0.74,0.06-1.06c0.04-0.31,0.13-0.59,0.26-0.84c0.14-0.25,0.31-0.43,0.51-0.55c0.2-0.12,0.44-0.18,0.69-0.18
	c0.29,0,0.55,0.08,0.78,0.23c0.22,0.15,0.38,0.39,0.48,0.7c0.1,0.32,0.15,0.74,0.15,1.28c0,0.88-0.13,1.53-0.4,1.94
	c-0.27,0.42-0.64,0.62-1.12,0.62c-0.24,0-0.45-0.05-0.63-0.16c-0.18-0.1-0.33-0.25-0.45-0.45c-0.12-0.2-0.2-0.43-0.25-0.69
	C88.9,130.85,88.88,130.56,88.88,130.26L88.88,130.26z M89.45,130.07c0,0.42,0.03,0.8,0.09,1.14c0.06,0.34,0.17,0.59,0.31,0.74
	c0.15,0.15,0.32,0.23,0.52,0.23c0.2,0,0.36-0.07,0.49-0.2c0.13-0.13,0.23-0.36,0.29-0.69c0.06-0.33,0.09-0.73,0.09-1.21
	c0-0.75-0.07-1.31-0.21-1.67c-0.14-0.36-0.38-0.54-0.71-0.54c-0.29,0-0.51,0.14-0.65,0.42C89.52,128.57,89.45,129.16,89.45,130.07z"
	/>
<path class="st1" d="M86.53,120.89c0.15,0,6.53,2.17,6.47,7.52c0,0.15-0.06,1.31-0.1,1.38c-0.18,0.3-0.67,0.65-0.32,0.59
	c0.9-0.15,1.03-0.46,1.39-0.57c0.36,0.12,0.49,0.43,1.39,0.57c0.35,0.06-0.14-0.29-0.32-0.59c-0.04-0.07-0.1-1.22-0.1-1.38
	c-0.07-5.35,6.32-7.52,6.47-7.52c-1.29-1.4-2.57-1.71-4.02-0.37c-0.9,0.83-2.46,2.78-2.7,5.22c-0.02,0.17-0.01,0.66-0.1,0.25
	c-0.58-2.61,1.42-5.53,3.14-7.18c-0.85-1.05-0.93-1.03-2.27-1.2c-0.15-0.76-0.96-1.32-1.27-1.51c-0.09-0.05-0.14-0.08-0.23-0.11
	c-0.12,0.05-0.2,0.1-0.32,0.18c-0.35,0.23-1.03,0.76-1.17,1.44c-1.34,0.17-1.42,0.15-2.27,1.2c1.72,1.65,3.72,4.57,3.14,7.18
	c-0.09,0.4-0.09-0.09-0.1-0.25c-0.24-2.44-1.8-4.39-2.7-5.22C89.1,119.18,87.82,119.49,86.53,120.89z"/>
<path class="st1" d="M91.88,127.04c-0.91-0.75-1.64-1.72-3.33-1.77c-0.27-0.01-1.1-0.03-1.21,0.22c-0.02,0.04-0.04,0.08-0.06,0.12
	c-0.21,0.42-0.64,0.8-1.23,0.8c-0.7,0-1.51-0.74-1.51-1.65c0-0.62,0.31-1.16,0.77-1.44l0,0l0,0
	C87.82,121.78,91.76,124.85,91.88,127.04z"/>
<path class="st1" d="M96.01,127.04c0.91-0.75,1.64-1.72,3.33-1.77c0.27-0.01,1.1-0.03,1.21,0.22c0.02,0.04,0.04,0.08,0.06,0.12
	c0.21,0.42,0.64,0.8,1.23,0.8c0.7,0,1.51-0.74,1.51-1.65c0-0.62-0.31-1.16-0.77-1.44l0,0l0,0
	C100.08,121.78,96.14,124.85,96.01,127.04z"/>
<path class="st1" d="M93.69,130.99h0.56c0.2,0,0.37,0.16,0.37,0.36v1.83c0.31,0.2,0.51,0.54,0.51,0.93c0,0.62-0.52,1.12-1.16,1.12
	c-0.64,0-1.16-0.5-1.16-1.12c0-0.39,0.2-0.73,0.51-0.93v-1.83C93.32,131.15,93.49,130.99,93.69,130.99z"/>
<path class="st1" d="M86.42,133.9h5.32c0.1,0,0.18,0.08,0.18,0.18v0.5c0,0.1-0.08,0.18-0.18,0.18h-5.32c-0.1,0-0.18-0.08-0.18-0.18
	v-0.5C86.25,133.98,86.33,133.9,86.42,133.9z"/>
<path class="st1" d="M96.19,133.9h5.32c0.1,0,0.18,0.08,0.18,0.18v0.5c0,0.1-0.08,0.18-0.18,0.18h-5.32c-0.1,0-0.18-0.08-0.18-0.18
	v-0.5C96.01,133.98,96.09,133.9,96.19,133.9z"/>
<path class="st1" d="M99.7,135.94c0.24,0,0.43,0.18,0.43,0.41c0,0.23-0.19,0.41-0.43,0.41c-0.17,0-0.31-0.09-0.38-0.23h-10.7
	c-0.07,0.13-0.21,0.23-0.38,0.23c-0.24,0-0.43-0.18-0.43-0.41c0-0.23,0.19-0.41,0.43-0.41c0.17,0,0.31,0.09,0.38,0.23h10.7
	C99.39,136.03,99.53,135.94,99.7,135.94z"/>
<path class="st1" d="M96.2,132.31l-0.04-0.03v-0.15l1.1-1.17c0.45-0.48,0.75-0.85,0.88-1.12c0.13-0.26,0.2-0.51,0.2-0.74
	c0-0.27-0.08-0.49-0.24-0.67c-0.16-0.18-0.38-0.27-0.66-0.27c-0.18,0-0.33,0.03-0.46,0.08c-0.13,0.05-0.22,0.12-0.27,0.18
	c-0.05,0.07-0.11,0.26-0.2,0.57l-0.03,0.03h-0.14L96.32,129c0.05-0.3,0.09-0.59,0.11-0.88c0.21-0.2,0.4-0.33,0.58-0.39
	c0.18-0.06,0.37-0.08,0.56-0.08c0.23,0,0.46,0.04,0.67,0.13c0.21,0.09,0.39,0.23,0.51,0.43c0.13,0.2,0.19,0.43,0.19,0.68
	c0,0.19-0.04,0.39-0.11,0.58c-0.08,0.19-0.19,0.38-0.33,0.56c-0.15,0.18-0.35,0.4-0.6,0.65l-1.03,1.05h1.3c0.4,0,0.73-0.01,1-0.04
	l0.02,0.03c-0.01,0.07-0.02,0.17-0.02,0.29c0,0.11,0.01,0.2,0.02,0.26l-0.02,0.04c-0.16-0.01-0.4-0.02-0.73-0.02
	c-0.33-0.01-0.54-0.01-0.65-0.01c-0.21,0-0.5,0-0.86,0.01C96.58,132.29,96.33,132.3,96.2,132.31L96.2,132.31z M99.63,130.26
	c0-0.39,0.02-0.74,0.06-1.06c0.04-0.31,0.13-0.59,0.26-0.84c0.14-0.25,0.31-0.43,0.51-0.55c0.2-0.12,0.44-0.18,0.69-0.18
	c0.29,0,0.55,0.08,0.78,0.23c0.22,0.15,0.38,0.39,0.48,0.7c0.1,0.32,0.15,0.74,0.15,1.28c0,0.88-0.13,1.53-0.4,1.94
	c-0.27,0.42-0.64,0.62-1.12,0.62c-0.24,0-0.45-0.05-0.63-0.16c-0.18-0.1-0.33-0.25-0.45-0.45c-0.12-0.2-0.2-0.43-0.25-0.69
	C99.66,130.85,99.63,130.56,99.63,130.26L99.63,130.26z M100.2,130.07c0,0.42,0.03,0.8,0.09,1.14c0.06,0.34,0.17,0.59,0.31,0.74
	c0.15,0.15,0.32,0.23,0.52,0.23c0.2,0,0.36-0.07,0.49-0.2c0.13-0.13,0.23-0.36,0.29-0.69c0.06-0.33,0.09-0.73,0.09-1.21
	c0-0.75-0.07-1.31-0.21-1.67c-0.14-0.36-0.38-0.54-0.71-0.54c-0.29,0-0.51,0.14-0.65,0.42C100.27,128.57,100.2,129.16,100.2,130.07z
	"/>
<path class="st1" d="M4.02,4.02h180.9v180.9H4.02V4.02L4.02,4.02z M5.73,5.73v177.49h177.49V5.73H5.73z"/>
</svg>
